<mxfile host="app.diagrams.net" modified="2021-07-07T17:52:42.206Z" agent="5.0 (Windows)" etag="SUfF5ArimMDxm_oHvsPW" version="14.8.4" type="github">
  <diagram id="FDpbI0SmE9irHN1tRBvn" name="Page-1">
    <mxGraphModel dx="1422" dy="714" grid="1" gridSize="10" guides="1" tooltips="1" connect="1" arrows="1" fold="1" page="1" pageScale="1" pageWidth="1100" pageHeight="850" math="0" shadow="0">
      <root>
        <mxCell id="0" />
        <mxCell id="1" parent="0" />
        <mxCell id="JuwknQHr-KDjN3cNSzJa-30" value="" style="rounded=1;whiteSpace=wrap;html=1;fillColor=#f5f5f5;strokeColor=#666666;fontColor=#333333;" parent="1" vertex="1">
          <mxGeometry x="1010" y="80" width="340" height="530" as="geometry" />
        </mxCell>
        <mxCell id="JuwknQHr-KDjN3cNSzJa-31" value="2,231 t" style="edgeStyle=orthogonalEdgeStyle;rounded=0;orthogonalLoop=1;jettySize=auto;html=1;exitX=0.75;exitY=1;exitDx=0;exitDy=0;entryX=0.75;entryY=0;entryDx=0;entryDy=0;strokeWidth=4;" parent="1" source="JuwknQHr-KDjN3cNSzJa-32" target="JuwknQHr-KDjN3cNSzJa-36" edge="1">
          <mxGeometry relative="1" as="geometry" />
        </mxCell>
        <mxCell id="JuwknQHr-KDjN3cNSzJa-57" value="970 t" style="edgeStyle=orthogonalEdgeStyle;rounded=0;orthogonalLoop=1;jettySize=auto;html=1;exitX=1;exitY=0.5;exitDx=0;exitDy=0;" parent="1" source="JuwknQHr-KDjN3cNSzJa-32" edge="1">
          <mxGeometry relative="1" as="geometry">
            <mxPoint x="1420" y="129" as="targetPoint" />
          </mxGeometry>
        </mxCell>
        <mxCell id="JuwknQHr-KDjN3cNSzJa-32" value="consumption" style="rounded=0;whiteSpace=wrap;html=1;" parent="1" vertex="1">
          <mxGeometry x="1120" y="99" width="120" height="60" as="geometry" />
        </mxCell>
        <mxCell id="JuwknQHr-KDjN3cNSzJa-33" value="8 t" style="edgeStyle=orthogonalEdgeStyle;rounded=0;orthogonalLoop=1;jettySize=auto;html=1;exitX=0.25;exitY=0;exitDx=0;exitDy=0;entryX=0.25;entryY=1;entryDx=0;entryDy=0;" parent="1" source="JuwknQHr-KDjN3cNSzJa-36" target="JuwknQHr-KDjN3cNSzJa-32" edge="1">
          <mxGeometry relative="1" as="geometry" />
        </mxCell>
        <mxCell id="JuwknQHr-KDjN3cNSzJa-34" value="1,584 t" style="edgeStyle=orthogonalEdgeStyle;rounded=0;orthogonalLoop=1;jettySize=auto;html=1;exitX=0.75;exitY=1;exitDx=0;exitDy=0;entryX=0.75;entryY=0;entryDx=0;entryDy=0;strokeWidth=4;" parent="1" source="JuwknQHr-KDjN3cNSzJa-36" target="JuwknQHr-KDjN3cNSzJa-41" edge="1">
          <mxGeometry relative="1" as="geometry" />
        </mxCell>
        <mxCell id="JuwknQHr-KDjN3cNSzJa-35" value="1,448 t" style="edgeStyle=orthogonalEdgeStyle;rounded=0;orthogonalLoop=1;jettySize=auto;html=1;exitX=1;exitY=0.25;exitDx=0;exitDy=0;strokeWidth=4;entryX=0;entryY=0.25;entryDx=0;entryDy=0;" parent="1" source="JuwknQHr-KDjN3cNSzJa-36" edge="1" target="Fz5H1CJimVI1yWWuHGEy-28">
          <mxGeometry x="0.2203" y="1" relative="1" as="geometry">
            <mxPoint x="920" y="261" as="targetPoint" />
            <mxPoint as="offset" />
          </mxGeometry>
        </mxCell>
        <mxCell id="JuwknQHr-KDjN3cNSzJa-36" value="waste" style="rounded=0;whiteSpace=wrap;html=1;" parent="1" vertex="1">
          <mxGeometry x="1120" y="216" width="120" height="60" as="geometry" />
        </mxCell>
        <mxCell id="JuwknQHr-KDjN3cNSzJa-37" value="1,562 t" style="edgeStyle=orthogonalEdgeStyle;rounded=0;orthogonalLoop=1;jettySize=auto;html=1;exitX=0.25;exitY=0;exitDx=0;exitDy=0;entryX=0.25;entryY=1;entryDx=0;entryDy=0;strokeWidth=4;" parent="1" source="JuwknQHr-KDjN3cNSzJa-41" target="JuwknQHr-KDjN3cNSzJa-36" edge="1">
          <mxGeometry relative="1" as="geometry">
            <Array as="points">
              <mxPoint x="1150" y="330" />
              <mxPoint x="1150" y="330" />
            </Array>
          </mxGeometry>
        </mxCell>
        <mxCell id="JuwknQHr-KDjN3cNSzJa-38" value="8,149 t" style="edgeStyle=orthogonalEdgeStyle;rounded=0;orthogonalLoop=1;jettySize=auto;html=1;exitX=0.5;exitY=1;exitDx=0;exitDy=0;entryX=0.25;entryY=0;entryDx=0;entryDy=0;strokeWidth=8;" parent="1" source="JuwknQHr-KDjN3cNSzJa-41" target="JuwknQHr-KDjN3cNSzJa-46" edge="1">
          <mxGeometry relative="1" as="geometry">
            <Array as="points">
              <mxPoint x="1180" y="460" />
              <mxPoint x="1240" y="460" />
            </Array>
          </mxGeometry>
        </mxCell>
        <mxCell id="JuwknQHr-KDjN3cNSzJa-39" value="1,540 t" style="edgeStyle=orthogonalEdgeStyle;rounded=0;orthogonalLoop=1;jettySize=auto;html=1;exitX=0.25;exitY=1;exitDx=0;exitDy=0;entryX=0.75;entryY=0;entryDx=0;entryDy=0;strokeWidth=4;" parent="1" source="JuwknQHr-KDjN3cNSzJa-41" target="JuwknQHr-KDjN3cNSzJa-50" edge="1">
          <mxGeometry relative="1" as="geometry">
            <Array as="points">
              <mxPoint x="1150" y="460" />
              <mxPoint x="1120" y="460" />
            </Array>
          </mxGeometry>
        </mxCell>
        <mxCell id="JuwknQHr-KDjN3cNSzJa-40" value="7,482 t" style="edgeStyle=orthogonalEdgeStyle;rounded=0;orthogonalLoop=1;jettySize=auto;html=1;exitX=1;exitY=0.25;exitDx=0;exitDy=0;strokeWidth=8;entryX=0.006;entryY=0.587;entryDx=0;entryDy=0;entryPerimeter=0;" parent="1" source="JuwknQHr-KDjN3cNSzJa-41" edge="1" target="Fz5H1CJimVI1yWWuHGEy-28">
          <mxGeometry x="0.2264" relative="1" as="geometry">
            <mxPoint x="920" y="384.7058823529412" as="targetPoint" />
            <Array as="points">
              <mxPoint x="1440" y="355" />
              <mxPoint x="1440" y="251" />
            </Array>
            <mxPoint as="offset" />
          </mxGeometry>
        </mxCell>
        <mxCell id="JuwknQHr-KDjN3cNSzJa-41" value="crop" style="rounded=0;whiteSpace=wrap;html=1;" parent="1" vertex="1">
          <mxGeometry x="1120" y="340" width="120" height="60" as="geometry" />
        </mxCell>
        <mxCell id="JuwknQHr-KDjN3cNSzJa-42" value="5,186 t" style="edgeStyle=orthogonalEdgeStyle;rounded=0;orthogonalLoop=1;jettySize=auto;html=1;exitX=0;exitY=0.75;exitDx=0;exitDy=0;entryX=1;entryY=0.75;entryDx=0;entryDy=0;strokeWidth=6;" parent="1" source="JuwknQHr-KDjN3cNSzJa-46" target="JuwknQHr-KDjN3cNSzJa-50" edge="1">
          <mxGeometry relative="1" as="geometry" />
        </mxCell>
        <mxCell id="JuwknQHr-KDjN3cNSzJa-43" value="8,469 t" style="edgeStyle=orthogonalEdgeStyle;rounded=0;orthogonalLoop=1;jettySize=auto;html=1;exitX=0.5;exitY=0;exitDx=0;exitDy=0;entryX=0.825;entryY=1.053;entryDx=0;entryDy=0;strokeWidth=8;entryPerimeter=0;" parent="1" source="JuwknQHr-KDjN3cNSzJa-46" target="JuwknQHr-KDjN3cNSzJa-41" edge="1">
          <mxGeometry relative="1" as="geometry">
            <Array as="points">
              <mxPoint x="1270" y="440" />
              <mxPoint x="1219" y="440" />
            </Array>
          </mxGeometry>
        </mxCell>
        <mxCell id="JuwknQHr-KDjN3cNSzJa-44" value="973 t" style="edgeStyle=orthogonalEdgeStyle;rounded=0;orthogonalLoop=1;jettySize=auto;html=1;exitX=0.75;exitY=0;exitDx=0;exitDy=0;entryX=1;entryY=0.75;entryDx=0;entryDy=0;" parent="1" source="JuwknQHr-KDjN3cNSzJa-46" target="JuwknQHr-KDjN3cNSzJa-36" edge="1">
          <mxGeometry relative="1" as="geometry" />
        </mxCell>
        <mxCell id="JuwknQHr-KDjN3cNSzJa-45" value="3,282 t" style="edgeStyle=orthogonalEdgeStyle;rounded=0;orthogonalLoop=1;jettySize=auto;html=1;exitX=1;exitY=0.5;exitDx=0;exitDy=0;strokeWidth=6;entryX=0.006;entryY=0.895;entryDx=0;entryDy=0;entryPerimeter=0;" parent="1" source="JuwknQHr-KDjN3cNSzJa-46" edge="1" target="Fz5H1CJimVI1yWWuHGEy-28">
          <mxGeometry x="0.4233" relative="1" as="geometry">
            <mxPoint x="1419.9999999999995" y="535.5882352941178" as="targetPoint" />
            <Array as="points">
              <mxPoint x="1470" y="535" />
              <mxPoint x="1470" y="270" />
              <mxPoint x="1531" y="270" />
            </Array>
            <mxPoint as="offset" />
          </mxGeometry>
        </mxCell>
        <mxCell id="Fz5H1CJimVI1yWWuHGEy-34" style="edgeStyle=orthogonalEdgeStyle;rounded=0;orthogonalLoop=1;jettySize=auto;html=1;exitX=1;exitY=0.75;exitDx=0;exitDy=0;entryX=-0.017;entryY=0.933;entryDx=0;entryDy=0;entryPerimeter=0;" edge="1" parent="1" source="JuwknQHr-KDjN3cNSzJa-46" target="Fz5H1CJimVI1yWWuHGEy-29">
          <mxGeometry relative="1" as="geometry">
            <Array as="points">
              <mxPoint x="1360" y="550" />
              <mxPoint x="1360" y="606" />
            </Array>
          </mxGeometry>
        </mxCell>
        <mxCell id="Fz5H1CJimVI1yWWuHGEy-35" value="1,880 t" style="edgeLabel;html=1;align=center;verticalAlign=middle;resizable=0;points=[];" vertex="1" connectable="0" parent="Fz5H1CJimVI1yWWuHGEy-34">
          <mxGeometry x="0.0792" y="1" relative="1" as="geometry">
            <mxPoint x="29" y="5" as="offset" />
          </mxGeometry>
        </mxCell>
        <mxCell id="JuwknQHr-KDjN3cNSzJa-46" value="animal" style="rounded=0;whiteSpace=wrap;html=1;" parent="1" vertex="1">
          <mxGeometry x="1210" y="505" width="120" height="60" as="geometry" />
        </mxCell>
        <mxCell id="JuwknQHr-KDjN3cNSzJa-47" value="11,643 t" style="edgeStyle=orthogonalEdgeStyle;rounded=0;orthogonalLoop=1;jettySize=auto;html=1;exitX=1;exitY=0.25;exitDx=0;exitDy=0;entryX=0;entryY=0.25;entryDx=0;entryDy=0;strokeWidth=10;" parent="1" source="JuwknQHr-KDjN3cNSzJa-50" target="JuwknQHr-KDjN3cNSzJa-46" edge="1">
          <mxGeometry relative="1" as="geometry" />
        </mxCell>
        <mxCell id="JuwknQHr-KDjN3cNSzJa-48" value="2,333 t" style="edgeStyle=orthogonalEdgeStyle;rounded=0;orthogonalLoop=1;jettySize=auto;html=1;entryX=0;entryY=0.75;entryDx=0;entryDy=0;strokeWidth=4;exitX=0.25;exitY=0;exitDx=0;exitDy=0;" parent="1" source="JuwknQHr-KDjN3cNSzJa-50" target="JuwknQHr-KDjN3cNSzJa-32" edge="1">
          <mxGeometry relative="1" as="geometry" />
        </mxCell>
        <mxCell id="JuwknQHr-KDjN3cNSzJa-50" value="processing" style="rounded=0;whiteSpace=wrap;html=1;" parent="1" vertex="1">
          <mxGeometry x="1030" y="505" width="120" height="60" as="geometry" />
        </mxCell>
        <mxCell id="JuwknQHr-KDjN3cNSzJa-51" value="11,479 t" style="edgeStyle=orthogonalEdgeStyle;rounded=0;orthogonalLoop=1;jettySize=auto;html=1;entryX=0;entryY=0.5;entryDx=0;entryDy=0;endSize=6;startSize=6;strokeWidth=10;exitX=1;exitY=0.75;exitDx=0;exitDy=0;" parent="1" target="JuwknQHr-KDjN3cNSzJa-50" edge="1" source="Fz5H1CJimVI1yWWuHGEy-36">
          <mxGeometry x="-0.098" relative="1" as="geometry">
            <mxPoint x="920" y="560" as="targetPoint" />
            <mxPoint x="910" y="520" as="sourcePoint" />
            <mxPoint as="offset" />
          </mxGeometry>
        </mxCell>
        <mxCell id="JuwknQHr-KDjN3cNSzJa-52" value="9,115 t" style="edgeStyle=orthogonalEdgeStyle;rounded=0;orthogonalLoop=1;jettySize=auto;html=1;entryX=0;entryY=0.5;entryDx=0;entryDy=0;strokeWidth=8;exitX=1;exitY=0.5;exitDx=0;exitDy=0;" parent="1" target="JuwknQHr-KDjN3cNSzJa-41" edge="1" source="Fz5H1CJimVI1yWWuHGEy-36">
          <mxGeometry x="-0.3333" relative="1" as="geometry">
            <mxPoint x="930" y="394.7058823529412" as="targetPoint" />
            <mxPoint x="920" y="355" as="sourcePoint" />
            <mxPoint as="offset" />
          </mxGeometry>
        </mxCell>
        <mxCell id="JuwknQHr-KDjN3cNSzJa-53" value="197 t" style="edgeStyle=orthogonalEdgeStyle;rounded=0;orthogonalLoop=1;jettySize=auto;html=1;entryX=0.005;entryY=0.567;entryDx=0;entryDy=0;strokeWidth=4;exitX=1.002;exitY=0.205;exitDx=0;exitDy=0;exitPerimeter=0;entryPerimeter=0;" parent="1" target="JuwknQHr-KDjN3cNSzJa-36" edge="1" source="Fz5H1CJimVI1yWWuHGEy-36">
          <mxGeometry x="-0.4438" relative="1" as="geometry">
            <mxPoint x="930" y="271" as="targetPoint" />
            <mxPoint x="920" y="231" as="sourcePoint" />
            <Array as="points">
              <mxPoint x="970" y="352" />
              <mxPoint x="970" y="250" />
            </Array>
            <mxPoint as="offset" />
          </mxGeometry>
        </mxCell>
        <mxCell id="Fz5H1CJimVI1yWWuHGEy-3" value="" style="rounded=1;whiteSpace=wrap;html=1;" vertex="1" parent="1">
          <mxGeometry x="370" y="80" width="340" height="510" as="geometry" />
        </mxCell>
        <mxCell id="Fz5H1CJimVI1yWWuHGEy-4" value="2,231 t" style="edgeStyle=orthogonalEdgeStyle;rounded=0;orthogonalLoop=1;jettySize=auto;html=1;exitX=0.75;exitY=1;exitDx=0;exitDy=0;entryX=0.75;entryY=0;entryDx=0;entryDy=0;strokeWidth=4;" edge="1" parent="1" source="Fz5H1CJimVI1yWWuHGEy-6" target="Fz5H1CJimVI1yWWuHGEy-10">
          <mxGeometry relative="1" as="geometry" />
        </mxCell>
        <mxCell id="Fz5H1CJimVI1yWWuHGEy-5" value="970 t" style="edgeStyle=orthogonalEdgeStyle;rounded=0;orthogonalLoop=1;jettySize=auto;html=1;exitX=1;exitY=0.5;exitDx=0;exitDy=0;" edge="1" parent="1" source="Fz5H1CJimVI1yWWuHGEy-6">
          <mxGeometry relative="1" as="geometry">
            <mxPoint x="779.9999999999995" y="150" as="targetPoint" />
          </mxGeometry>
        </mxCell>
        <mxCell id="Fz5H1CJimVI1yWWuHGEy-6" value="consumption" style="rounded=0;whiteSpace=wrap;html=1;" vertex="1" parent="1">
          <mxGeometry x="480" y="120" width="120" height="60" as="geometry" />
        </mxCell>
        <mxCell id="Fz5H1CJimVI1yWWuHGEy-7" value="8 t" style="edgeStyle=orthogonalEdgeStyle;rounded=0;orthogonalLoop=1;jettySize=auto;html=1;exitX=0.25;exitY=0;exitDx=0;exitDy=0;entryX=0.25;entryY=1;entryDx=0;entryDy=0;" edge="1" parent="1" source="Fz5H1CJimVI1yWWuHGEy-10" target="Fz5H1CJimVI1yWWuHGEy-6">
          <mxGeometry relative="1" as="geometry" />
        </mxCell>
        <mxCell id="Fz5H1CJimVI1yWWuHGEy-8" value="1,584 t" style="edgeStyle=orthogonalEdgeStyle;rounded=0;orthogonalLoop=1;jettySize=auto;html=1;exitX=0.75;exitY=1;exitDx=0;exitDy=0;entryX=0.75;entryY=0;entryDx=0;entryDy=0;strokeWidth=4;" edge="1" parent="1" source="Fz5H1CJimVI1yWWuHGEy-10" target="Fz5H1CJimVI1yWWuHGEy-15">
          <mxGeometry relative="1" as="geometry" />
        </mxCell>
        <mxCell id="Fz5H1CJimVI1yWWuHGEy-9" value="2,016 t" style="edgeStyle=orthogonalEdgeStyle;rounded=0;orthogonalLoop=1;jettySize=auto;html=1;exitX=0;exitY=0.75;exitDx=0;exitDy=0;strokeWidth=4;" edge="1" parent="1" source="Fz5H1CJimVI1yWWuHGEy-10">
          <mxGeometry relative="1" as="geometry">
            <mxPoint x="279.99999999999955" y="285" as="targetPoint" />
          </mxGeometry>
        </mxCell>
        <mxCell id="Fz5H1CJimVI1yWWuHGEy-10" value="waste" style="rounded=0;whiteSpace=wrap;html=1;" vertex="1" parent="1">
          <mxGeometry x="480" y="240" width="120" height="60" as="geometry" />
        </mxCell>
        <mxCell id="Fz5H1CJimVI1yWWuHGEy-11" value="1,562 t" style="edgeStyle=orthogonalEdgeStyle;rounded=0;orthogonalLoop=1;jettySize=auto;html=1;exitX=0.25;exitY=0;exitDx=0;exitDy=0;entryX=0.25;entryY=1;entryDx=0;entryDy=0;strokeWidth=4;" edge="1" parent="1" source="Fz5H1CJimVI1yWWuHGEy-15" target="Fz5H1CJimVI1yWWuHGEy-10">
          <mxGeometry relative="1" as="geometry">
            <Array as="points">
              <mxPoint x="510" y="330" />
              <mxPoint x="510" y="330" />
            </Array>
          </mxGeometry>
        </mxCell>
        <mxCell id="Fz5H1CJimVI1yWWuHGEy-12" value="8,149 t" style="edgeStyle=orthogonalEdgeStyle;rounded=0;orthogonalLoop=1;jettySize=auto;html=1;exitX=0.75;exitY=1;exitDx=0;exitDy=0;entryX=0.25;entryY=0;entryDx=0;entryDy=0;strokeWidth=8;" edge="1" parent="1" source="Fz5H1CJimVI1yWWuHGEy-15" target="Fz5H1CJimVI1yWWuHGEy-20">
          <mxGeometry relative="1" as="geometry">
            <Array as="points">
              <mxPoint x="570" y="460" />
              <mxPoint x="600" y="460" />
            </Array>
          </mxGeometry>
        </mxCell>
        <mxCell id="Fz5H1CJimVI1yWWuHGEy-13" value="1,540 t" style="edgeStyle=orthogonalEdgeStyle;rounded=0;orthogonalLoop=1;jettySize=auto;html=1;exitX=0.25;exitY=1;exitDx=0;exitDy=0;entryX=0.75;entryY=0;entryDx=0;entryDy=0;strokeWidth=4;" edge="1" parent="1" source="Fz5H1CJimVI1yWWuHGEy-15" target="Fz5H1CJimVI1yWWuHGEy-24">
          <mxGeometry relative="1" as="geometry">
            <Array as="points">
              <mxPoint x="510" y="460" />
              <mxPoint x="480" y="460" />
            </Array>
          </mxGeometry>
        </mxCell>
        <mxCell id="Fz5H1CJimVI1yWWuHGEy-14" value="7,914 t" style="edgeStyle=orthogonalEdgeStyle;rounded=0;orthogonalLoop=1;jettySize=auto;html=1;exitX=0;exitY=0.75;exitDx=0;exitDy=0;strokeWidth=8;" edge="1" parent="1" source="Fz5H1CJimVI1yWWuHGEy-15">
          <mxGeometry relative="1" as="geometry">
            <mxPoint x="279.99999999999955" y="404.7058823529412" as="targetPoint" />
          </mxGeometry>
        </mxCell>
        <mxCell id="Fz5H1CJimVI1yWWuHGEy-15" value="crop" style="rounded=0;whiteSpace=wrap;html=1;" vertex="1" parent="1">
          <mxGeometry x="480" y="360" width="120" height="60" as="geometry" />
        </mxCell>
        <mxCell id="Fz5H1CJimVI1yWWuHGEy-16" value="5,186 t" style="edgeStyle=orthogonalEdgeStyle;rounded=0;orthogonalLoop=1;jettySize=auto;html=1;exitX=0;exitY=0.75;exitDx=0;exitDy=0;entryX=1;entryY=0.75;entryDx=0;entryDy=0;strokeWidth=3;" edge="1" parent="1" source="Fz5H1CJimVI1yWWuHGEy-20" target="Fz5H1CJimVI1yWWuHGEy-24">
          <mxGeometry relative="1" as="geometry" />
        </mxCell>
        <mxCell id="Fz5H1CJimVI1yWWuHGEy-17" value="8,469 t" style="edgeStyle=orthogonalEdgeStyle;rounded=0;orthogonalLoop=1;jettySize=auto;html=1;exitX=0.5;exitY=0;exitDx=0;exitDy=0;entryX=1;entryY=0.75;entryDx=0;entryDy=0;strokeWidth=8;" edge="1" parent="1" source="Fz5H1CJimVI1yWWuHGEy-20" target="Fz5H1CJimVI1yWWuHGEy-15">
          <mxGeometry relative="1" as="geometry" />
        </mxCell>
        <mxCell id="Fz5H1CJimVI1yWWuHGEy-18" value="973 t" style="edgeStyle=orthogonalEdgeStyle;rounded=0;orthogonalLoop=1;jettySize=auto;html=1;exitX=0.75;exitY=0;exitDx=0;exitDy=0;entryX=1;entryY=0.75;entryDx=0;entryDy=0;" edge="1" parent="1" source="Fz5H1CJimVI1yWWuHGEy-20" target="Fz5H1CJimVI1yWWuHGEy-10">
          <mxGeometry relative="1" as="geometry" />
        </mxCell>
        <mxCell id="Fz5H1CJimVI1yWWuHGEy-19" value="5,162 t" style="edgeStyle=orthogonalEdgeStyle;rounded=0;orthogonalLoop=1;jettySize=auto;html=1;exitX=1;exitY=0.5;exitDx=0;exitDy=0;strokeWidth=6;" edge="1" parent="1" source="Fz5H1CJimVI1yWWuHGEy-20">
          <mxGeometry relative="1" as="geometry">
            <mxPoint x="779.9999999999995" y="510.5882352941178" as="targetPoint" />
          </mxGeometry>
        </mxCell>
        <mxCell id="Fz5H1CJimVI1yWWuHGEy-20" value="animal" style="rounded=0;whiteSpace=wrap;html=1;" vertex="1" parent="1">
          <mxGeometry x="570" y="480" width="120" height="60" as="geometry" />
        </mxCell>
        <mxCell id="Fz5H1CJimVI1yWWuHGEy-21" value="11,643 t" style="edgeStyle=orthogonalEdgeStyle;rounded=0;orthogonalLoop=1;jettySize=auto;html=1;exitX=1;exitY=0.25;exitDx=0;exitDy=0;entryX=0;entryY=0.25;entryDx=0;entryDy=0;strokeWidth=10;" edge="1" parent="1" source="Fz5H1CJimVI1yWWuHGEy-24" target="Fz5H1CJimVI1yWWuHGEy-20">
          <mxGeometry relative="1" as="geometry" />
        </mxCell>
        <mxCell id="Fz5H1CJimVI1yWWuHGEy-22" value="2,333 t" style="edgeStyle=orthogonalEdgeStyle;rounded=0;orthogonalLoop=1;jettySize=auto;html=1;entryX=0;entryY=0.75;entryDx=0;entryDy=0;strokeWidth=4;" edge="1" parent="1" source="Fz5H1CJimVI1yWWuHGEy-24" target="Fz5H1CJimVI1yWWuHGEy-6">
          <mxGeometry relative="1" as="geometry" />
        </mxCell>
        <mxCell id="Fz5H1CJimVI1yWWuHGEy-23" value="4, 228 t" style="edgeStyle=orthogonalEdgeStyle;rounded=0;orthogonalLoop=1;jettySize=auto;html=1;exitX=0;exitY=0.75;exitDx=0;exitDy=0;strokeWidth=6;" edge="1" parent="1" source="Fz5H1CJimVI1yWWuHGEy-24">
          <mxGeometry relative="1" as="geometry">
            <mxPoint x="269.99999999999955" y="525" as="targetPoint" />
          </mxGeometry>
        </mxCell>
        <mxCell id="Fz5H1CJimVI1yWWuHGEy-24" value="processing" style="rounded=0;whiteSpace=wrap;html=1;" vertex="1" parent="1">
          <mxGeometry x="390" y="480" width="120" height="60" as="geometry" />
        </mxCell>
        <mxCell id="Fz5H1CJimVI1yWWuHGEy-25" value="11,479 t" style="edgeStyle=orthogonalEdgeStyle;rounded=0;orthogonalLoop=1;jettySize=auto;html=1;entryX=0;entryY=0.25;entryDx=0;entryDy=0;endSize=6;startSize=6;strokeWidth=10;" edge="1" parent="1" target="Fz5H1CJimVI1yWWuHGEy-24">
          <mxGeometry relative="1" as="geometry">
            <mxPoint x="280" y="535" as="targetPoint" />
            <mxPoint x="269.99999999999955" y="495" as="sourcePoint" />
          </mxGeometry>
        </mxCell>
        <mxCell id="Fz5H1CJimVI1yWWuHGEy-26" value="9,115 t" style="edgeStyle=orthogonalEdgeStyle;rounded=0;orthogonalLoop=1;jettySize=auto;html=1;entryX=0;entryY=0.25;entryDx=0;entryDy=0;strokeWidth=8;" edge="1" parent="1" target="Fz5H1CJimVI1yWWuHGEy-15">
          <mxGeometry relative="1" as="geometry">
            <mxPoint x="290" y="414.7058823529412" as="targetPoint" />
            <mxPoint x="279.99999999999955" y="375" as="sourcePoint" />
          </mxGeometry>
        </mxCell>
        <mxCell id="Fz5H1CJimVI1yWWuHGEy-27" value="197 t" style="edgeStyle=orthogonalEdgeStyle;rounded=0;orthogonalLoop=1;jettySize=auto;html=1;entryX=0;entryY=0.25;entryDx=0;entryDy=0;strokeWidth=4;" edge="1" parent="1" target="Fz5H1CJimVI1yWWuHGEy-10">
          <mxGeometry relative="1" as="geometry">
            <mxPoint x="290" y="295" as="targetPoint" />
            <mxPoint x="279.99999999999955" y="255" as="sourcePoint" />
          </mxGeometry>
        </mxCell>
        <mxCell id="Fz5H1CJimVI1yWWuHGEy-28" value="environment" style="rounded=0;whiteSpace=wrap;html=1;" vertex="1" parent="1">
          <mxGeometry x="1535" y="216" width="120" height="60" as="geometry" />
        </mxCell>
        <mxCell id="Fz5H1CJimVI1yWWuHGEy-29" value="export" style="rounded=0;whiteSpace=wrap;html=1;" vertex="1" parent="1">
          <mxGeometry x="1530" y="550" width="130" height="60" as="geometry" />
        </mxCell>
        <mxCell id="Fz5H1CJimVI1yWWuHGEy-30" value="568 t" style="edgeStyle=orthogonalEdgeStyle;rounded=0;orthogonalLoop=1;jettySize=auto;html=1;exitX=1;exitY=0.5;exitDx=0;exitDy=0;strokeWidth=2;entryX=0;entryY=0.5;entryDx=0;entryDy=0;" edge="1" parent="1" source="JuwknQHr-KDjN3cNSzJa-36" target="Fz5H1CJimVI1yWWuHGEy-29">
          <mxGeometry x="0.7115" relative="1" as="geometry">
            <mxPoint x="1480" y="245" as="targetPoint" />
            <mxPoint x="1250" y="256" as="sourcePoint" />
            <Array as="points">
              <mxPoint x="1370" y="246" />
              <mxPoint x="1370" y="580" />
            </Array>
            <mxPoint as="offset" />
          </mxGeometry>
        </mxCell>
        <mxCell id="Fz5H1CJimVI1yWWuHGEy-31" value="?" style="text;html=1;strokeColor=none;fillColor=none;align=center;verticalAlign=middle;whiteSpace=wrap;rounded=0;" vertex="1" parent="1">
          <mxGeometry x="1440" y="119" width="40" height="20" as="geometry" />
        </mxCell>
        <mxCell id="Fz5H1CJimVI1yWWuHGEy-32" value="438 t" style="edgeStyle=orthogonalEdgeStyle;rounded=0;orthogonalLoop=1;jettySize=auto;html=1;exitX=1;exitY=0.75;exitDx=0;exitDy=0;strokeWidth=2;entryX=0;entryY=0.25;entryDx=0;entryDy=0;" edge="1" parent="1" source="JuwknQHr-KDjN3cNSzJa-41" target="Fz5H1CJimVI1yWWuHGEy-29">
          <mxGeometry x="0.617" relative="1" as="geometry">
            <mxPoint x="1440.7200000000003" y="395.22" as="targetPoint" />
            <mxPoint x="1250" y="395" as="sourcePoint" />
            <mxPoint as="offset" />
          </mxGeometry>
        </mxCell>
        <mxCell id="Fz5H1CJimVI1yWWuHGEy-33" value="5,162 t" style="edgeStyle=orthogonalEdgeStyle;rounded=0;orthogonalLoop=1;jettySize=auto;html=1;strokeWidth=6;entryX=0;entryY=0.75;entryDx=0;entryDy=0;exitX=0.75;exitY=1;exitDx=0;exitDy=0;" edge="1" parent="1" source="JuwknQHr-KDjN3cNSzJa-50" target="Fz5H1CJimVI1yWWuHGEy-29">
          <mxGeometry x="0.4545" relative="1" as="geometry">
            <mxPoint x="1470.7200000000003" y="503.69999999999993" as="targetPoint" />
            <mxPoint x="1030" y="545" as="sourcePoint" />
            <Array as="points">
              <mxPoint x="1120" y="595" />
            </Array>
            <mxPoint as="offset" />
          </mxGeometry>
        </mxCell>
        <mxCell id="Fz5H1CJimVI1yWWuHGEy-36" value="import" style="rounded=0;whiteSpace=wrap;html=1;" vertex="1" parent="1">
          <mxGeometry x="790" y="340" width="120" height="60" as="geometry" />
        </mxCell>
      </root>
    </mxGraphModel>
  </diagram>
</mxfile>
